<?xml version="1.0" encoding="UTF-8" standalone="no"?>
<!-- Created with Inkscape (http://www.inkscape.org/) -->

<svg
   width="1000"
   height="1000"
   viewBox="0 0 264.58333 264.58333"
   version="1.1"
   id="svg1"
   xml:space="preserve"
   inkscape:version="1.3.2 (091e20e, 2023-11-25, custom)"
   sodipodi:docname="drawingblack.svg"
   xmlns:inkscape="http://www.inkscape.org/namespaces/inkscape"
   xmlns:sodipodi="http://sodipodi.sourceforge.net/DTD/sodipodi-0.dtd"
   xmlns="http://www.w3.org/2000/svg"
   xmlns:svg="http://www.w3.org/2000/svg"><sodipodi:namedview
     id="namedview1"
     pagecolor="#ffffff"
     bordercolor="#000000"
     borderopacity="0.25"
     inkscape:showpageshadow="2"
     inkscape:pageopacity="0.0"
     inkscape:pagecheckerboard="0"
     inkscape:deskcolor="#d1d1d1"
     inkscape:document-units="mm"
     inkscape:zoom="0.46929649"
     inkscape:cx="-79.90684"
     inkscape:cy="354.78637"
     inkscape:window-width="1920"
     inkscape:window-height="974"
     inkscape:window-x="-11"
     inkscape:window-y="-11"
     inkscape:window-maximized="1"
     inkscape:current-layer="layer1" /><defs
     id="defs1" /><g
     inkscape:label="Layer 1"
     inkscape:groupmode="layer"
     id="layer1"
     style="display:inline"><path
       d="M 0,264.58333 H 264.58333 V 0 H 147.0184 v 0.04 c 0.0768,8.6089 2.72846,15.0704 8.01204,19.4211 5.24518,4.3136 16.85061,6.497 34.87238,6.497 13.94863,0 24.22741,0.482 30.93272,1.4077 6.66688,0.963 12.27653,3.3146 16.75322,7.1099 4.53428,3.7953 7.7438,8.72 9.76116,14.7 2.01743,6.0169 3.01515,14.4966 3.01515,25.47521 v 6.2942 h -29.41471 c 0,-11.0156 -1.17105,-17.77441 -3.55345,-20.23671 -2.38245,-2.4994 -7.20512,-3.8328 -14.50607,-3.9993 -20.9998,-0.481 -34.45001,-1.2033 -40.40608,-2.1846 -5.95601,-1.0182 -11.48937,-2.9431 -16.63843,-5.9423 -5.18752,-2.9436 -9.68236,-7.6282 -13.54424,-14.0155 -4.57267,6.739 -9.08932,11.4613 -13.48908,14.1273 -4.4382,2.666 -9.22159,4.4798 -14.40911,5.4055 -5.1875,0.926 -14.8711,1.6475 -28.99272,2.1473 -14.12157,0.444 -22.20956,1.0177 -24.22696,1.6657 -2.0558,0.611 -3.80377,2.1487 -5.28318,4.5555 -1.46019,2.4253 -2.23078,8.55291 -2.23078,18.45771 H 14.25553 v -6.2584 c 0,-12.64491 1.51917,-22.36441 4.47797,-29.23301 2.9781,-6.8685 7.87747,-11.8295 14.65964,-14.9028 6.8399,-3.0733 17.81021,-4.6107 32.93088,-4.6107 17.38776,0 28.31874,-0.61 32.81459,-1.8132 4.53422,-1.259 8.6284,-3.3871 12.35576,-6.5344 3.72728,-3.1103 5.74389,-8.9615 6.07054,-17.5704 H 0 Z m 14.2272,-93.58601 v -25.88381 l 236.12892,-52.3417 v 24.1585 z m 0.0104,18.1073 v -6.2585 h 29.41472 c 0,9.9049 0.76909,16.0325 2.22928,18.4578 1.47941,2.4067 3.22738,3.9447 5.28318,4.5555 2.0174,0.648 10.10689,1.2213 24.22846,1.6657 14.12162,0.5 23.80372,1.2216 28.99122,2.1472 5.18752,0.926 9.97239,2.7395 14.41061,5.4055 4.39976,2.666 8.91491,7.3884 13.48761,14.12741 3.86185,-6.38731 8.35816,-11.07191 13.54572,-14.01551 5.14905,-2.9992 10.68241,-4.9241 16.63842,-5.9423 5.95607,-0.981 19.40478,-1.7032 40.40461,-2.1846 7.30092,-0.166 12.12359,-1.4999 14.50604,-3.9993 2.3824,-2.4624 3.55345,-9.2211 3.55345,-20.2367 h 29.41471 v 6.2942 c 0,10.9786 -0.99772,19.4583 -3.01514,25.4752 -2.01737,5.98 -5.22689,10.90461 -9.76117,14.70001 -4.47666,3.7952 -10.08631,6.1471 -16.75322,7.1099 -6.7053,0.925 -16.98409,1.4077 -30.93272,1.4077 -18.02177,0 -29.62717,2.1833 -34.87238,6.497 -5.28358,4.3507 -7.9354,10.8121 -8.01204,19.421 v 0.04 h -29.45193 c -0.32665,-8.6089 -2.34474,-14.4602 -6.07201,-17.5705 -3.72739,-3.1473 -7.82007,-5.2754 -12.35432,-6.5344 -4.49582,-1.2034 -15.42828,-1.8132 -32.81606,-1.8132 -15.12067,0 -26.09098,-1.5374 -32.93087,-4.6107 -6.78218,-3.0733 -11.68155,-8.0342 -14.65965,-14.90281 -2.9588,-6.8686 -4.47647,-16.5881 -4.47647,-29.233 z"
       style="display:none;fill:#131c35;fill-opacity:1;stroke-width:0.645589"
       id="path14" /><g
       id="g17"
       style="display:inline"
       transform="matrix(0,-2.8855962,2.8855799,0,-249.44651,686.02468)"><path
         d="m 172.20706,91.379953 c -4.38207,0 -7.75036,0.525952 -10.13065,1.551326 -2.3803,1.032062 -4.0995,2.729943 -5.16454,5.080311 -1.06505,2.37037 -1.59784,6.17214 -1.59784,11.41222 0,6.02575 -0.21132,9.8144 -0.62838,11.37243 -0.43629,1.57135 -1.17377,2.98967 -2.26446,4.2814 -1.07787,1.29169 -3.10563,1.99106 -6.08904,2.10426 v 10.20661 h 0.0129 c 2.98341,0.0266 5.22261,0.94555 6.73034,2.77658 1.4949,1.81773 2.25154,5.83959 2.25154,12.08505 0,4.83391 0.16708,8.39603 0.48783,10.71976 0.33366,2.31042 1.14869,4.25445 2.46393,5.80584 1.31527,1.57136 3.02191,2.68362 5.09426,3.38274 2.08515,0.69914 5.02379,1.0449 8.82841,1.0449 h 2.18126 v -10.19369 c -3.81746,0 -6.15969,-0.40583 -7.01301,-1.23145 -0.86616,-0.82564 -1.32826,-2.49694 -1.38596,-5.02708 -0.16684,-7.27751 -0.41701,-11.93817 -0.75706,-14.00225 -0.35287,-2.06406 -1.01993,-3.98165 -2.05931,-5.76606 -1.02012,-1.79775 -2.64355,-3.35595 -4.85707,-4.69428 2.33541,-1.58467 3.97194,-3.1494 4.89583,-4.67414 0.9239,-1.53807 1.55247,-3.19627 1.87327,-4.99401 0.32078,-1.79773 0.57093,-5.15307 0.74414,-10.04693 0.15398,-4.89384 0.35269,-7.69726 0.57723,-8.39639 0.21169,-0.71244 0.74466,-1.3182 1.57871,-1.83089 0.84049,-0.50603 2.964,-0.77256 6.39651,-0.77256 V 91.379953 Z"
         style="fill:#131c35;stroke-width:0.653597"
         id="path17" /><path
         d="M 178.48213,91.376335 197.21897,173.207 h 8.3721 L 187.45212,91.376335 Z"
         style="fill:#131c35;stroke-width:0.264583"
         id="path16" /><path
         d="m 237.74104,127.1881 c -2.9834,-0.1132 -5.01116,-0.81206 -6.08903,-2.10375 -1.09069,-1.29172 -1.82817,-2.71056 -2.26446,-4.2819 -0.41706,-1.55804 -0.62839,-5.34618 -0.62839,-11.37192 0,-5.24008 -0.53278,-9.04185 -1.59783,-11.412224 -1.06504,-2.350367 -2.78425,-4.048248 -5.16454,-5.08031 -2.38029,-1.025375 -5.74859,-1.551843 -10.13065,-1.551843 h -2.16886 v 10.193697 c 3.4325,0 5.55602,0.26705 6.39651,0.77308 0.83405,0.51269 1.36702,1.11845 1.57871,1.83089 0.22454,0.69913 0.42325,3.50203 0.57723,8.39587 0.17321,4.89386 0.42336,8.24972 0.74414,10.04745 0.3208,1.79774 0.94937,3.45543 1.87327,4.99349 0.92389,1.52474 2.56042,3.08999 4.89582,4.67465 -2.21351,1.33834 -3.83695,2.89603 -4.85706,4.69377 -1.03938,1.78441 -1.70644,3.702 -2.05931,5.76606 -0.34005,2.06408 -0.59022,6.72526 -0.75706,14.00276 -0.0577,2.53015 -0.5198,4.20145 -1.38596,5.02709 -0.85332,0.82562 -3.19555,1.23145 -7.01301,1.23145 v 10.19369 h 2.18126 c 3.80462,0 6.74326,-0.34576 8.8284,-1.0449 2.07236,-0.69912 3.779,-1.81138 5.09427,-3.38274 1.31524,-1.5514 2.13027,-3.49543 2.46393,-5.80584 0.32075,-2.32373 0.48782,-5.88585 0.48782,-10.71976 0,-6.24546 0.75665,-10.26733 2.25155,-12.08505 1.50772,-1.83103 3.74693,-2.75002 6.73033,-2.77658 h 0.0129 z"
         style="fill:#131c35;stroke-width:0.653597"
         id="path15" /></g></g></svg>
